<svg xmlns="http://www.w3.org/2000/svg" viewBox="8058.999 -7167.027 577.188 163.527"><defs><style>.a{fill:#fff;}.b{fill:#ffc726;}.c{fill:none;stroke:#ffc725;stroke-miterlimit:10;}.d{fill:#ffc725;}</style></defs><g transform="translate(7760 -7253)"><path class="a" d="M92.663,78.7c7.407,0,9.686.684,12.763,3.761,2.735,2.735,3.761,6.268,3.761,11.851,0,7.863-1.254,11.054-5.584,13.789,5.014,1.937,6.723,5.47,6.723,14.358,0,7.407-.8,10.826-3.3,13.789-2.735,3.191-6.723,4.444-13.561,4.444H84.8V78.7Zm2.051,25.754c5.014,0,6.04-1.6,6.04-9.344,0-6.609-1.254-8.319-6.04-8.319H93.461v17.663ZM94.372,132.6c6.04,0,7.293-1.823,7.293-10.028s-1.254-10.028-7.293-10.028h-.8V132.6Z" transform="translate(260.693 59.92)"/><path class="a" d="M134.368,78.7v8.091H122.061v17.321h8.547V112.2h-8.547v20.4h12.991v8.091H113.4V78.7Z" transform="translate(264.685 59.92)"/><path class="a" d="M136.6,78.7h9.344l4.786,22.905L155.517,78.7h9.117l-9.686,36.238v25.754h-8.661V114.938Z" transform="translate(267.923 59.92)"/><path class="a" d="M189.915,124.964c0,7.407-.228,8.889-1.937,11.624-2.051,3.191-5.926,5.128-10.37,5.128-4.33,0-8.319-1.937-10.37-5.128-1.709-2.735-1.937-4.33-1.937-11.624V94.538c0-7.293.228-8.889,1.937-11.624a12.289,12.289,0,0,1,10.37-5.014c4.33,0,8.319,1.937,10.37,5.014,1.709,2.735,1.937,4.33,1.937,11.624ZM181.254,91c0-3.533-1.026-5.014-3.647-5.014-2.507,0-3.647,1.481-3.647,5.014v37.606c0,3.533,1.026,5.014,3.647,5.014,2.507,0,3.647-1.481,3.647-5.014Z" transform="translate(271.928 59.809)"/><path class="a" d="M220.777,140.692h-8.661l-10.256-32.478v32.478H193.2V78.7h7.407L212,115.166V78.7h8.661v61.992Z" transform="translate(275.822 59.92)"/><path class="a" d="M233.13,78.7c6.04,0,8.775.8,11.4,3.419,2.621,2.507,3.875,6.268,3.875,10.826v33.389c0,4.672-1.254,8.319-3.875,10.826-2.621,2.621-5.356,3.419-11.4,3.419H223.9V78.7Zm.57,53.9c4.786,0,6.154-1.367,6.154-6.268V93.058c0-4.786-1.481-6.268-6.154-6.268h-1.14V132.6Z" transform="translate(280.106 59.92)"/><path class="a" d="M334.319,78.7c7.521,0,10.37.912,12.877,4.1,2.621,3.3,3.3,6.5,3.3,14.358,0,8.319-.8,11.4-3.3,14.358-2.279,2.621-6.04,3.988-11.282,3.988h-1.253v25.184H326V78.7Zm1.709,28.831c5.128,0,6.154-1.709,6.154-10.37s-1.026-10.37-6.154-10.37h-1.254v20.74Z" transform="translate(294.356 59.92)"/><path class="a" d="M358.919,140.692H350.6L359.033,78.7H370.2l8.091,61.992h-8.433l-1.6-13.9H360.4Zm5.47-50.711L361.426,118.7h5.926Z" transform="translate(297.789 59.92)"/><path class="a" d="M388.847,78.7c6.951,0,10.142,1.14,12.649,4.33,2.279,2.849,3.3,7.065,3.3,12.877,0,7.749-.8,10.484-4.33,15.042l6.04,29.629h-9.458l-5.014-26.666c-1.481.228-1.709.228-3.077.342v26.324H380.3V78.7Zm1.367,27.008c2.735,0,4.33-.684,5.242-2.279.684-1.254.8-2.735.8-8.319,0-6.723-1.254-8.319-6.04-8.319h-1.254v18.917h1.254Z" transform="translate(301.934 59.92)"/><path class="a" d="M416.719,140.692H408.4L416.833,78.7H428l8.091,61.992h-8.433l-1.6-13.9H418.2Zm5.47-50.711L419.226,118.7h5.926Z" transform="translate(305.856 59.92)"/><path class="a" d="M437.3,90.4h8.661v60.511h0V159H437.3Z" transform="translate(309.889 61.553)"/><path class="a" d="M449.4,58.3h8.661v70.539h0v8.091H449.4Z" transform="translate(311.578 57.073)"/><path class="a" d="M484.568,78.7v8.091H472.261v17.321h8.547V112.2h-8.547v20.4h12.991v8.091H463.6V78.7Z" transform="translate(313.56 59.92)"/><path class="a" d="M487.6,78.7h8.661v53.9h12.307v8.091H487.714V78.7Z" transform="translate(316.909 59.92)"/><path class="b" d="M299.906,79.9v43.531H293.3v-44.9c-1.14-.114-2.279-.228-3.419-.228a32.481,32.481,0,0,0-9.344,63.588V99.952h6.609v43.189a22.884,22.884,0,0,0,2.849.114,32.451,32.451,0,0,0,9.914-63.36Z" transform="translate(284.782 59.865)"/><rect class="c" width="564.084" height="149.283" transform="translate(305.836 93.38)"/><g transform="translate(298.999 210.755)"><rect class="d" width="13.675" height="35.326"/><rect class="d" width="13.675" height="35.326" transform="translate(0 38.745) rotate(-90)"/></g><g transform="translate(840.861 85.973)"><rect class="d" width="13.675" height="35.326" transform="translate(35.326 38.745) rotate(180)"/><rect class="d" width="13.675" height="35.326" transform="translate(35.326) rotate(90)"/></g></g></svg>