<svg xmlns="http://www.w3.org/2000/svg" xmlns:xlink="http://www.w3.org/1999/xlink" viewBox="3970.161 -3890.908 44.315 13.462"><defs><style>.a,.d{fill:#ffc726;}.b{clip-path:url(#a);}.c{fill:none;}.c,.d{stroke:#050f1a;}.e{fill:#fff;}</style><clipPath id="a"><path class="a" d="M0,0H21.316V13.462H0Z" transform="translate(913.161 3338.092)"/></clipPath></defs><g transform="translate(3057 -7229)"><g class="b"><path class="a" d="M0,0H21.316V13.462H0Z" transform="translate(913.161 3338.092)"/><path class="c" d="M14308.008,791.72l11.063,10,11.251-10" transform="translate(-13395.389 2546.28)"/><path class="d" d="M1.823,7.114,10.36,0" transform="translate(910.176 3345.301)"/><path class="d" d="M0,6.308,7.2,0" transform="matrix(-0.105, -0.995, 0.995, -0.105, 927.967, 3352.415)"/></g><g class="b" transform="translate(23)"><path class="e" d="M0,0H21.316V13.462H0Z" transform="translate(913.161 3338.092)"/><path class="c" d="M14308.008,791.72l11.063,10,11.251-10" transform="translate(-13395.389 2546.28)"/><path class="d" d="M1.823,7.114,10.36,0" transform="translate(910.176 3345.301)"/><path class="d" d="M0,6.308,7.2,0" transform="matrix(-0.105, -0.995, 0.995, -0.105, 927.967, 3352.415)"/></g></g></svg>