<svg xmlns="http://www.w3.org/2000/svg" viewBox="4188 -3852 66.889 31.887"><defs><style>.a{fill:#ffc726;}.b{fill:#1c2232;}.c,.f{fill:none;}.c,.d{stroke:#ffc726;}.d,.g{fill:rgba(0,0,0,0);}.e{fill:#fff;}.f,.g{stroke:#fff;}</style></defs><g transform="translate(3057 -7229)"><g transform="translate(-61 7)"><path class="a" d="M15.944,0A15.944,15.944,0,1,0,31.887,15.944,15.912,15.912,0,0,0,15.944,0Zm6.5,13.123v.368a9.462,9.462,0,0,1-2.859,6.6,8.479,8.479,0,0,1-6.094,2.35,7.913,7.913,0,0,1-4.783-1.472h.736a6.337,6.337,0,0,0,3.925-1.349,3.169,3.169,0,0,1-2.943-2.208h.613a2.087,2.087,0,0,0,.859-.123,2.81,2.81,0,0,1-2.575-2.821h0l1.472.368a3.037,3.037,0,0,1-1.349-2.576,2.566,2.566,0,0,1,.368-1.717,8.9,8.9,0,0,0,6.5,3.311c0-.245-.123-.491-.123-.736a3.247,3.247,0,0,1,3.189-3.189,3.351,3.351,0,0,1,2.33.981,5.419,5.419,0,0,0,1.962-.736A3.172,3.172,0,0,1,22.321,11.9a10.217,10.217,0,0,0,1.84-.491A7.6,7.6,0,0,1,22.444,13.123Z" transform="translate(1192 3370)"/><g transform="translate(-0.493 3042.28)"><g transform="translate(1197.112 336.72)"><path class="b" d="M0,0H21.316V13.462H0Z" transform="translate(0.541 0.092)"/><path class="c" d="M14308.008,791.72l11.063,10,11.251-10" transform="translate(-14308.008 -791.72)"/></g><path class="d" d="M1.823,7.114,10.36,0" transform="translate(1194.669 344.021)"/><path class="d" d="M0,6.308,7.2,0" transform="matrix(-0.105, -0.995, 0.995, -0.105, 1212.46, 351.135)"/></g></g><g transform="translate(-26 7)"><path class="e" d="M15.944,0A15.944,15.944,0,1,0,31.887,15.944,15.912,15.912,0,0,0,15.944,0Zm6.5,13.123v.368a9.462,9.462,0,0,1-2.859,6.6,8.479,8.479,0,0,1-6.094,2.35,7.913,7.913,0,0,1-4.783-1.472h.736a6.337,6.337,0,0,0,3.925-1.349,3.169,3.169,0,0,1-2.943-2.208h.613a2.087,2.087,0,0,0,.859-.123,2.81,2.81,0,0,1-2.575-2.821h0l1.472.368a3.037,3.037,0,0,1-1.349-2.576,2.566,2.566,0,0,1,.368-1.717,8.9,8.9,0,0,0,6.5,3.311c0-.245-.123-.491-.123-.736a3.247,3.247,0,0,1,3.189-3.189,3.351,3.351,0,0,1,2.33.981,5.419,5.419,0,0,0,1.962-.736A3.172,3.172,0,0,1,22.321,11.9a10.217,10.217,0,0,0,1.84-.491A7.6,7.6,0,0,1,22.444,13.123Z" transform="translate(1192 3370)"/><g transform="translate(-0.493 3042.28)"><g transform="translate(1197.112 336.72)"><path class="b" d="M0,0H21.316V13.462H0Z" transform="translate(0.541 0.092)"/><path class="f" d="M14308.008,791.72l11.063,10,11.251-10" transform="translate(-14308.008 -791.72)"/></g><path class="g" d="M1.823,7.114,10.36,0" transform="translate(1194.669 344.021)"/><path class="g" d="M0,6.308,7.2,0" transform="matrix(-0.105, -0.995, 0.995, -0.105, 1212.46, 351.135)"/></g></g></g></svg>