<svg xmlns="http://www.w3.org/2000/svg" viewBox="4108 -3865 65.889 31.887"><defs><style>.a{fill:#ffc726;}.b{fill:#fff;}</style></defs><g transform="translate(3057 -7229)"><g transform="translate(-17093 254)"><path class="a" d="M15.944,0A15.944,15.944,0,1,0,31.887,15.944,15.912,15.912,0,0,0,15.944,0Zm3.8,11.038H17.293a.836.836,0,0,0-.613.859v1.717h3.066v2.453H16.679v7.481H13.859V16.066H11.406V13.613h2.576V12.264a3.6,3.6,0,0,1,3.434-3.8h2.453v2.576Z" transform="translate(18144 3110)"/></g><g transform="translate(-17059 254)"><path class="b" d="M15.944,0A15.944,15.944,0,1,0,31.887,15.944,15.912,15.912,0,0,0,15.944,0Zm3.8,11.038H17.293a.836.836,0,0,0-.613.859v1.717h3.066v2.453H16.679v7.481H13.859V16.066H11.406V13.613h2.576V12.264a3.6,3.6,0,0,1,3.434-3.8h2.453v2.576Z" transform="translate(18144 3110)"/></g></g></svg>