<svg xmlns="http://www.w3.org/2000/svg" viewBox="3921.407 -3857.538 41.462 15.086"><defs><style>.a{fill:#ffc726;}.b{fill:#fff;}</style></defs><g transform="translate(3057 -7229)"><g transform="translate(-17293 252)"><path class="a" d="M14252.681,7000.549h-2.821v-7.484h-2.452v-2.453h2.574v-1.347a3.593,3.593,0,0,1,3.434-3.8h2.453v2.575h-2.574a.829.829,0,0,0-.612.859v1.715h3.064v2.453h-3.064v7.483Z" transform="translate(3910 -3866)"/></g><g transform="translate(-17258 253)"><path class="b" d="M14217.68,7001.547h-2.822v-7.48h-2.45v-2.454h2.575v-1.35a3.592,3.592,0,0,1,3.433-3.8h2.454v2.576h-2.575a.841.841,0,0,0-.614.857v1.718h3.064v2.454h-3.064v7.479Z" transform="translate(3943 -3868)"/></g></g></svg>