<svg xmlns="http://www.w3.org/2000/svg" viewBox="10438.999 -4735 14.451 14.156"><defs><style>.a{fill:#fff;}</style></defs><g transform="translate(10039 -7291)"><path class="a" d="M599.067,365.539a2.971,2.971,0,0,0,1.18,2.6,3.436,3.436,0,0,0,1.77.472h.236a2.3,2.3,0,0,0,.472,1.593h0c-1.062,0-4.424.236-4.424,3.008,0,2.831,3.067,2.949,3.716,2.949h.177a5.529,5.529,0,0,0,2.359-.531,3.212,3.212,0,0,0,1.887-3.126,3.882,3.882,0,0,0-1.651-2.89c-.413-.354-.767-.708-.767-1s.295-.59.59-.885a3.111,3.111,0,0,0,1.062-2.536c0-1.18-.177-1.946-1.062-2.477.118-.059.413-.059.59-.118.531-.059,1.239-.118,1.239-.531V362h-3.6C602.783,362,599.067,362.118,599.067,365.539Zm5.958,7.2c.059,1.121-.885,1.946-2.359,2.064s-2.654-.531-2.772-1.652a1.719,1.719,0,0,1,.649-1.475,3.214,3.214,0,0,1,1.828-.767h.236C604.08,370.907,604.965,371.673,605.024,372.735Zm-.944-7.963c.354,1.3-.177,2.6-1.062,2.831-.118,0-.177.059-.295.059-.826,0-1.593-.826-1.888-1.888a2.418,2.418,0,0,1,.059-1.711,1.468,1.468,0,0,1,.944-1c.118,0,.177-.059.295-.059C603.078,363,603.668,363.416,604.08,364.772Zm6.193,2.772v-2.418H608.74v2.418h-2.359v1.534H608.8V371.5h1.534v-2.418h2.418v-1.534Z" transform="translate(-198.3 2194)"/></g></svg>