<svg xmlns="http://www.w3.org/2000/svg" viewBox="10743 -4692 15.183 15"><defs><style>.a{fill:#fff;}</style></defs><g transform="translate(10633.8 -5108.294)"><path class="a" d="M112.622,417.916a1.639,1.639,0,0,1-1.742,1.618,1.622,1.622,0,0,1-1.68-1.618,1.6,1.6,0,0,1,1.742-1.618A1.521,1.521,0,0,1,112.622,417.916Zm-3.36,13.378V420.84H112.5v10.454Z"/><path class="a" d="M117.662,426.709c0-1.307-.062-2.427-.062-3.36h2.8l.124,1.431h.062a3.793,3.793,0,0,1,3.236-1.68c2.116,0,3.734,1.431,3.734,4.542v6.16H124.32v-5.787c0-1.369-.5-2.24-1.618-2.24a1.834,1.834,0,0,0-1.68,1.245,2.761,2.761,0,0,0-.124.809v6.036h-3.236Z" transform="translate(-3.173 -2.571)"/></g></svg>