<svg xmlns="http://www.w3.org/2000/svg" viewBox="10776 -4707 12.389 15.886"><defs><style>.a{fill:#fff;}</style></defs><g transform="translate(10009.308 -5102.417)"><path class="a" d="M713.741,370.907c-.411,2.17-.938,4.282-2.464,5.4-.469-3.343.7-5.807,1.232-8.447-.938-1.525.117-4.634,2.053-3.871,2.346.939-2.053,5.69.939,6.335,3.109.645,4.341-5.4,2.464-7.332-2.757-2.816-8.095-.059-7.449,3.989.176,1,1.173,1.29.411,2.64-1.76-.411-2.288-1.818-2.229-3.637a6.016,6.016,0,0,1,5.4-5.514c3.343-.352,6.511,1.232,6.922,4.4a8.041,8.041,0,0,1-.528,4.052,4.577,4.577,0,0,1-4.575,3.1C714.914,371.9,714.5,371.376,713.741,370.907Z" transform="translate(58 35)"/></g></svg>