<svg xmlns="http://www.w3.org/2000/svg" viewBox="14427.623 -5199 15.459 14.271"><defs><style>.a{fill:#95989a;}</style></defs><g transform="translate(14073 -7798.266)"><g transform="translate(354.623 2580.993)"><path class="a" d="M85.991,22.017,82.423,18.45a.572.572,0,0,0-.418-.177.648.648,0,0,0-.232.046.556.556,0,0,0-.362.548v1.784H79.924a15.18,15.18,0,0,0-1.826.1,9.847,9.847,0,0,0-1.482.283,6.031,6.031,0,0,0-1.157.451,4.948,4.948,0,0,0-.878.571,3.622,3.622,0,0,0-.636.688,4.266,4.266,0,0,0-.437.757,4.376,4.376,0,0,0-.26.818,6.409,6.409,0,0,0-.13.836q-.033.39-.033.845a4.447,4.447,0,0,0,.163,1.134,7.4,7.4,0,0,0,.358,1.059q.2.446.46.924t.367.636q.1.158.2.288a.291.291,0,0,0,.241.121.5.5,0,0,0,.112-.018.286.286,0,0,0,.186-.316q-.418-3.122.688-4.395,1.069-1.217,4.069-1.217h1.487V26a.555.555,0,0,0,.362.548.646.646,0,0,0,.232.046.553.553,0,0,0,.418-.176l3.568-3.568a.583.583,0,0,0,0-.836Z" transform="translate(-70.708)"/><path class="a" d="M12.886,62.549a.276.276,0,0,0-.325.074,1.958,1.958,0,0,1-.5.344.293.293,0,0,0-.167.269v1.988a1.491,1.491,0,0,1-1.486,1.486H2.676a1.431,1.431,0,0,1-1.05-.437,1.431,1.431,0,0,1-.437-1.05v-7.73a1.431,1.431,0,0,1,.437-1.05,1.431,1.431,0,0,1,1.05-.437H3.716a.429.429,0,0,0,.149-.037A6.2,6.2,0,0,1,5.1,55.413a.271.271,0,0,0,.242-.3.3.3,0,0,0-.3-.3H2.676A2.577,2.577,0,0,0,.785,55.6,2.577,2.577,0,0,0,0,57.495v7.73a2.577,2.577,0,0,0,.785,1.891,2.577,2.577,0,0,0,1.891.785h7.73a2.681,2.681,0,0,0,2.676-2.676V62.818A.281.281,0,0,0,12.886,62.549Z" transform="translate(0 -35.357)"/></g></g></svg>