<svg xmlns="http://www.w3.org/2000/svg" viewBox="4107.51 -3907 65.889 31.887"><defs><style>.a{fill:#ffc726;}.b{fill:#fff;}</style></defs><g transform="translate(3057 -7229)"><path class="a" d="M15.944,0A15.944,15.944,0,1,0,31.887,15.944,15.912,15.912,0,0,0,15.944,0Zm6.5,13.123v.368a8.9,8.9,0,0,1-8.953,8.953,7.913,7.913,0,0,1-4.783-1.472h.736a6.337,6.337,0,0,0,3.925-1.349,3.169,3.169,0,0,1-2.943-2.208h.613a2.087,2.087,0,0,0,.859-.123,2.81,2.81,0,0,1-2.575-2.821h0l1.472.368a3.037,3.037,0,0,1-1.349-2.576,2.566,2.566,0,0,1,.368-1.717,8.9,8.9,0,0,0,6.5,3.311c0-.245-.123-.491-.123-.736a3.247,3.247,0,0,1,3.189-3.189,3.351,3.351,0,0,1,2.33.981,5.419,5.419,0,0,0,1.962-.736A3.172,3.172,0,0,1,22.321,11.9a10.217,10.217,0,0,0,1.84-.491A7.6,7.6,0,0,1,22.444,13.123Z" transform="translate(1050.51 3322)"/><path class="b" d="M15.944,0A15.944,15.944,0,1,0,31.887,15.944,15.912,15.912,0,0,0,15.944,0Zm6.5,13.123v.368a8.9,8.9,0,0,1-8.953,8.953,7.913,7.913,0,0,1-4.783-1.472h.736a6.337,6.337,0,0,0,3.925-1.349,3.169,3.169,0,0,1-2.943-2.208h.613a2.087,2.087,0,0,0,.859-.123,2.81,2.81,0,0,1-2.575-2.821h0l1.472.368a3.037,3.037,0,0,1-1.349-2.576,2.566,2.566,0,0,1,.368-1.717,8.9,8.9,0,0,0,6.5,3.311c0-.245-.123-.491-.123-.736a3.247,3.247,0,0,1,3.189-3.189,3.351,3.351,0,0,1,2.33.981,5.419,5.419,0,0,0,1.962-.736A3.172,3.172,0,0,1,22.321,11.9a10.217,10.217,0,0,0,1.84-.491A7.6,7.6,0,0,1,22.444,13.123Z" transform="translate(1084.51 3322)"/></g></svg>