<svg xmlns="http://www.w3.org/2000/svg" viewBox="3967.218 -3814.067 32.453 12.512"><defs><style>.a{fill:#fff;}.b{fill:#ffc726;}</style></defs><g transform="translate(3057 -7229)"><path class="a" d="M-3043.509,7251.445a7.951,7.951,0,0,1-4.783-1.473h.736a6.336,6.336,0,0,0,3.924-1.348,3.185,3.185,0,0,1-2.943-2.208h.612a2.107,2.107,0,0,0,.86-.122,2.806,2.806,0,0,1-2.577-2.821l.5.125.973.244a3.028,3.028,0,0,1-1.348-2.577,2.568,2.568,0,0,1,.363-1.71,8.97,8.97,0,0,0,6.5,3.305,1.528,1.528,0,0,0-.061-.364,1.55,1.55,0,0,1-.063-.372,3.232,3.232,0,0,1,3.189-3.189,3.38,3.38,0,0,1,2.331.982,5.367,5.367,0,0,0,1.963-.736,3.156,3.156,0,0,1-1.35,1.717,10.323,10.323,0,0,0,1.841-.49,7.6,7.6,0,0,1-1.709,1.71l-.008.375A8.867,8.867,0,0,1-3043.509,7251.445Z" transform="translate(3975.51 -3824)"/><path class="b" d="M-3043.509,7251.445a7.951,7.951,0,0,1-4.783-1.473h.736a6.336,6.336,0,0,0,3.924-1.348,3.185,3.185,0,0,1-2.943-2.208h.612a2.107,2.107,0,0,0,.86-.122,2.806,2.806,0,0,1-2.577-2.821l.5.125.973.244a3.028,3.028,0,0,1-1.348-2.577,2.568,2.568,0,0,1,.363-1.71,8.97,8.97,0,0,0,6.5,3.305,1.528,1.528,0,0,0-.061-.364,1.55,1.55,0,0,1-.063-.372,3.232,3.232,0,0,1,3.189-3.189,3.38,3.38,0,0,1,2.331.982,5.367,5.367,0,0,0,1.963-.736,3.156,3.156,0,0,1-1.35,1.717,10.323,10.323,0,0,0,1.841-.49,7.6,7.6,0,0,1-1.709,1.71l-.008.375A8.867,8.867,0,0,1-3043.509,7251.445Z" transform="translate(3958.51 -3824)"/></g></svg>