<?xml version="1.0" encoding="utf-8"?>
<!-- Generator: Adobe Illustrator 21.1.0, SVG Export Plug-In . SVG Version: 6.00 Build 0)  -->
<svg version="1.1" id="Layer_1" xmlns="http://www.w3.org/2000/svg" xmlns:xlink="http://www.w3.org/1999/xlink" x="0px" y="0px"
	 viewBox="0 0 506.5 143.5" style="enable-background:new 0 0 506.5 143.5;" xml:space="preserve">
<path style="fill:#FFFFFF;" d="M47.7,46.2c6.5,0,8.5,0.6,11.2,3.3c2.4,2.4,3.3,5.5,3.3,10.4c0,6.9-1.1,9.7-4.9,12.1
	c4.4,1.7,5.9,4.8,5.9,12.6c0,6.5-0.7,9.5-2.9,12.1c-2.4,2.8-5.9,3.9-11.9,3.9h-7.6V46.2H47.7z M49.5,68.8c4.4,0,5.3-1.4,5.3-8.2
	c0-5.8-1.1-7.3-5.3-7.3h-1.1v15.5H49.5z M49.2,93.5c5.3,0,6.4-1.6,6.4-8.8c0-7.2-1.1-8.8-6.4-8.8h-0.7v17.6H49.2z"/>
<path style="fill:#FFFFFF;" d="M87.8,46.2v7.1H77.1v15.2h7.5v7.1h-7.5v17.9h11.4v7.1h-19V46.2H87.8z"/>
<path style="fill:#FFFFFF;" d="M92.6,46.2h8.2l4.2,20.1l4.2-20.1h8L108.6,78v22.6h-7.6V78L92.6,46.2z"/>
<path style="fill:#FFFFFF;" d="M142.9,86.7c0,6.5-0.2,7.8-1.7,10.2c-1.8,2.8-5.2,4.5-9.1,4.5c-3.8,0-7.3-1.7-9.1-4.5
	c-1.5-2.4-1.7-3.8-1.7-10.2V60c0-6.4,0.2-7.8,1.7-10.2c1.8-2.7,5.2-4.4,9.1-4.4c3.8,0,7.3,1.7,9.1,4.4c1.5,2.4,1.7,3.8,1.7,10.2
	V86.7z M135.3,56.9c0-3.1-0.9-4.4-3.2-4.4c-2.2,0-3.2,1.3-3.2,4.4v33c0,3.1,0.9,4.4,3.2,4.4c2.2,0,3.2-1.3,3.2-4.4V56.9z"/>
<path style="fill:#FFFFFF;" d="M173.4,100.6h-7.6l-9-28.5v28.5h-7.6V46.2h6.5l10,32v-32h7.6V100.6z"/>
<path style="fill:#FFFFFF;" d="M188,46.2c5.3,0,7.7,0.7,10,3c2.3,2.2,3.4,5.5,3.4,9.5V88c0,4.1-1.1,7.3-3.4,9.5c-2.3,2.3-4.7,3-10,3
	h-8.1V46.2H188z M188.5,93.5c4.2,0,5.4-1.2,5.4-5.5V58.8c0-4.2-1.3-5.5-5.4-5.5h-1v40.2H188.5z"/>
<path style="fill:#FFFFFF;" d="M289.3,46.2c6.6,0,9.1,0.8,11.3,3.6c2.3,2.9,2.9,5.7,2.9,12.6c0,7.3-0.7,10-2.9,12.6
	c-2,2.3-5.3,3.5-9.9,3.5h-1.1v22.1h-7.6V46.2H289.3z M290.8,71.5c4.5,0,5.4-1.5,5.4-9.1c0-7.6-0.9-9.1-5.4-9.1h-1.1v18.2H290.8z"/>
<path style="fill:#FFFFFF;" d="M313.9,100.6h-7.3l7.4-54.4h9.8l7.1,54.4h-7.4l-1.4-12.2h-6.9L313.9,100.6z M318.7,56.1l-2.6,25.2
	h5.2L318.7,56.1z"/>
<path style="fill:#FFFFFF;" d="M343.8,46.2c6.1,0,8.9,1,11.1,3.8c2,2.5,2.9,6.2,2.9,11.3c0,6.8-0.7,9.2-3.8,13.2l5.3,26H351
	l-4.4-23.4c-1.3,0.2-1.5,0.2-2.7,0.3v23.1h-7.6V46.2H343.8z M345,69.9c2.4,0,3.8-0.6,4.6-2c0.6-1.1,0.7-2.4,0.7-7.3
	c0-5.9-1.1-7.3-5.3-7.3h-1.1v16.6H345z"/>
<path style="fill:#FFFFFF;" d="M371.7,100.6h-7.3l7.4-54.4h9.8l7.1,54.4h-7.4l-1.4-12.2H373L371.7,100.6z M376.5,56.1l-2.6,25.2h5.2
	L376.5,56.1z"/>
<path style="fill:#FFFFFF;" d="M393.3,57.9h7.6V111h0v7.1h-7.6V57.9z"/>
<path style="fill:#FFFFFF;" d="M405.4,25.8h7.6v61.9h0v7.1h-7.6V25.8z"/>
<path style="fill:#FFFFFF;" d="M438,46.2v7.1h-10.8v15.2h7.5v7.1h-7.5v17.9h11.4v7.1h-19V46.2H438z"/>
<path style="fill:#FFFFFF;" d="M443.6,46.2h7.6v47.3h10.8v7.1h-18.3V46.2z"/>
<path style="fill:#FFCD05;" d="M250.7,47.2v38.2h-5.8V46c-1-0.1-2-0.2-3-0.2c-15.7,0-28.5,12.8-28.5,28.5c0,12.9,8.5,23.8,20.3,27.3
	V64.8h5.8v37.9c0.8,0.1,1.6,0.1,2.5,0.1c15.7,0,28.5-12.8,28.5-28.5C270.4,61.6,262.1,50.9,250.7,47.2z"/>
<g>
	<rect x="6" y="6.5" style="fill:none;stroke:#FFCD05;stroke-miterlimit:10;" width="495" height="131"/>
	<g>
		<rect y="109.5" style="fill:#FFC725;" width="12" height="31"/>
		
			<rect x="9.5" y="122" transform="matrix(4.486817e-11 -1 1 4.486817e-11 -122 153)" style="fill:#FFC725;" width="12" height="31"/>
	</g>
	<g>
		
			<rect x="494.5" y="3" transform="matrix(-1 -8.973679e-11 8.973679e-11 -1 1001 37)" style="fill:#FFCD05;" width="12" height="31"/>
		
			<rect x="485" y="-9.5" transform="matrix(-1.346809e-10 1 -1 -1.346809e-10 497 -485)" style="fill:#FFCD05;" width="12" height="31"/>
	</g>
</g>
</svg>
