<svg xmlns="http://www.w3.org/2000/svg" viewBox="14585 -5198.463 13.285 13.286"><defs><style>.a{fill:#95989a;}</style></defs><g transform="translate(13818 -7711)"><g transform="translate(766.993 2512.537)"><path class="a" d="M0,0H4.151V.83H0Z" transform="translate(4.159 9.964)"/><path class="a" d="M91.815.83h6.642V2.491h.83V.83a.83.83,0,0,0-.83-.83H91.815a.831.831,0,0,0-.83.83V2.491h.83Z" transform="translate(-88.487)"/><path class="a" d="M0,0H4.982V.83H0Z" transform="translate(4.159 8.303)"/><path class="a" d="M12.462,121.3H.837a.831.831,0,0,0-.83.83v4.982a.83.83,0,0,0,.83.83H2.5v2.491a.83.83,0,0,0,.83.83H9.971a.83.83,0,0,0,.83-.83v-2.491h1.661a.83.83,0,0,0,.83-.83v-4.982A.83.83,0,0,0,12.462,121.3Zm-2.491,9.134H3.328v-4.982H9.971v4.982Zm1.66-6.643a.83.83,0,1,1,.83-.83A.83.83,0,0,1,11.631,123.8Z" transform="translate(0 -117.983)"/></g></g></svg>