<svg xmlns="http://www.w3.org/2000/svg" viewBox="10731 -4696 18.75 15"><defs><style>.a{fill:#fff;}</style></defs><g transform="translate(10409.7 -5060.8)"><path class="a" d="M345.05,365.565a7.321,7.321,0,0,1-2.175.588,3.636,3.636,0,0,0,1.725-2.059,7.091,7.091,0,0,1-2.475.882,3.836,3.836,0,0,0-6.6,2.574,3.511,3.511,0,0,0,.075.882,11.087,11.087,0,0,1-7.95-3.971,4.051,4.051,0,0,0-.525,1.912,3.819,3.819,0,0,0,1.725,3.162,4.591,4.591,0,0,1-1.725-.441v.074a3.743,3.743,0,0,0,3.075,3.676,4.508,4.508,0,0,1-1.05.147,2.6,2.6,0,0,1-.75-.074,3.967,3.967,0,0,0,3.6,2.647,7.85,7.85,0,0,1-4.8,1.618,3.723,3.723,0,0,1-.9-.074,10.907,10.907,0,0,0,5.925,1.691,10.774,10.774,0,0,0,10.95-10.735v-.515A11.871,11.871,0,0,0,345.05,365.565Z" transform="translate(-5 1)"/></g></svg>